<?xml version="1.0" encoding="UTF-8"?>
<svg version="1.1" xmlns="http://www.w3.org/2000/svg" width="2000" height="2000">
<path d="M0 0 C660 0 1320 0 2000 0 C2000 660 2000 1320 2000 2000 C1340 2000 680 2000 0 2000 C0 1340 0 680 0 0 Z " fill="#000000" transform="translate(0,0)"/>
<path d="M0 0 C27.4824782 1.1379879 55.25354703 2.0892648 82.67163086 -0.55834961 C92.30883737 -1.43788815 101.92185073 -1.50820876 111.59179688 -1.52905273 C112.38797424 -1.53404785 113.18415161 -1.53904297 114.00445557 -1.54418945 C131.72458042 -1.6361012 149.0012369 -0.14025694 162.24414062 12.75610352 C177.99896764 29.39108847 178.46095073 53.11026908 178.44482422 74.81298828 C178.45082794 76.45601704 178.45763761 78.09904301 178.46517944 79.74206543 C178.48265013 84.15315694 178.48752644 88.56417062 178.48881102 92.9752934 C178.49024295 95.74142508 178.49453182 98.5075376 178.49980545 101.27366447 C178.51823647 110.9519868 178.52648399 120.63025446 178.52490234 130.30859375 C178.52369983 139.28712584 178.54484168 148.265418 178.57638967 157.24388939 C178.60263734 164.99386286 178.61326624 172.74375827 178.61199152 180.49377578 C178.61148479 185.10458009 178.6170081 189.71517021 178.63834763 194.32592964 C178.65787661 198.66248047 178.65775569 202.99861571 178.64331436 207.33518219 C178.64124386 208.91404524 178.64582039 210.49293539 178.65803528 212.07175255 C178.76486934 226.85264654 176.82439134 242.83978525 166.77929688 254.47094727 C165.91304687 255.21344727 165.04679687 255.95594727 164.15429688 256.72094727 C163.68765625 257.20047852 163.22101562 257.68000977 162.74023438 258.17407227 C155.24490168 265.48479086 144.05308096 268.841134 133.73242188 268.85375977 C132.19328125 268.85569336 132.19328125 268.85569336 130.62304688 268.85766602 C129.02976562 268.85186523 129.02976562 268.85186523 127.40429688 268.84594727 C126.35757813 268.84981445 125.31085937 268.85368164 124.23242188 268.85766602 C119.69714479 268.85199692 115.23914549 268.80063091 110.73632812 268.23266602 C91.82384037 265.86060574 69.4214552 265.38641114 53.15429688 276.72094727 C52.10242188 277.44282227 51.05054688 278.16469727 49.96679688 278.90844727 C35.54052139 293.33472275 34.00635233 315.15319096 33.98632812 334.43969727 C33.98222931 335.67131592 33.97813049 336.90293457 33.97390747 338.171875 C33.96597136 341.49931654 33.96352019 344.82664025 33.96561813 348.15408325 C33.96680093 350.22804933 33.96626399 352.30201034 33.96560669 354.37597656 C33.96753005 382.70660345 34.44675507 411.09297777 36.67724609 439.34594727 C37.23831357 447.10781068 37.31730669 454.8499712 37.32226562 462.62719727 C37.3261881 464.162415 37.33028778 465.69763229 37.33454895 467.23284912 C37.34378912 471.36476157 37.34474495 475.49663429 37.34277344 479.6285553 C37.34178582 482.25029701 37.34278653 484.87203288 37.34399414 487.49377441 C37.34820637 512.21139113 36.96406239 536.89554124 36.22502518 561.60136032 C35.372143 590.17519008 34.92853196 618.72844398 34.90753174 647.31559753 C34.9044116 650.05762368 34.89740091 652.79961096 34.88916016 655.54162598 C34.84229701 673.06695943 34.95777755 690.57505375 35.6171875 708.08959961 C35.66133411 709.26658196 35.70548073 710.44356432 35.75096512 711.65621281 C35.79626736 712.86325587 35.8415696 714.07029894 35.88824463 715.31391907 C37.00255286 745.12011815 37.32398266 774.87885143 37.27929688 804.70532227 C37.27789609 805.73299878 37.2764953 806.7606753 37.27505207 807.81949353 C37.25256294 823.70336595 37.20538308 839.5871454 37.15429688 855.47094727 C37.10970903 869.43311993 37.0688904 883.39526444 37.04746056 897.35749459 C37.03926469 902.37818297 37.02693781 907.39878174 37.00396729 912.41942596 C36.88384655 938.89787618 37.24843397 964.98291159 41.27929688 991.22094727 C44.10244782 1011.05351854 46.51345133 1033.24392693 33.96679688 1050.40844727 C24.49609083 1061.78533355 11.53866262 1067.23564355 -2.84570312 1069.72094727 C-8.64481234 1070.11515458 -14.41130165 1070.10380963 -20.22070312 1070.03344727 C-21.82991453 1070.02410683 -23.43912679 1070.01491219 -25.04833984 1070.00585938 C-35.26927315 1069.91695643 -45.3826722 1069.44047947 -55.54101562 1068.25610352 C-69.06136469 1066.76525794 -82.66826086 1066.56722124 -96.25585938 1066.58813477 C-97.8452506 1066.58745808 -99.43464172 1066.58648506 -101.02403259 1066.5852356 C-104.31542978 1066.58377957 -107.60679943 1066.58584705 -110.89819336 1066.59057617 C-115.09384595 1066.59631494 -119.28943513 1066.59295511 -123.48508549 1066.58700371 C-126.75120007 1066.58337704 -130.01729979 1066.58454562 -133.28341484 1066.5871315 C-134.83061163 1066.58779275 -136.37780982 1066.5870008 -137.92500496 1066.58465195 C-148.37573143 1066.57162143 -148.37573143 1066.57162143 -158.77696228 1067.48742676 C-162.8735947 1067.94985669 -166.99271774 1067.92531441 -171.11132812 1067.95922852 C-172.06658386 1067.96730026 -173.0218396 1067.97537201 -174.00604248 1067.98368835 C-176.0162174 1067.99743575 -178.02641475 1068.00819908 -180.03662109 1068.01611328 C-182.0689185 1068.02762909 -184.10118576 1068.04807452 -186.13330078 1068.07763672 C-202.64400297 1068.31709675 -216.99677061 1067.71338511 -229.77539062 1055.94360352 C-243.61660094 1041.41924333 -244.09807564 1019.86927715 -244.15820312 1000.97094727 C-244.16115387 1000.14716583 -244.16410461 999.3233844 -244.16714478 998.47463989 C-244.17795278 984.9525409 -243.35340694 971.61142458 -242.03320312 958.15844727 C-241.94378448 957.24385742 -241.85436584 956.32926758 -241.76223755 955.38696289 C-241.3954075 951.64643337 -241.02692084 947.90606982 -240.65681458 944.16586304 C-236.3238937 899.99001631 -235.80397147 856.33903137 -238.70489502 812.06282043 C-242.36884651 756.00412436 -242.65581286 699.2277253 -235.30517578 643.39331055 C-234.79488393 639.31477171 -234.51046726 635.26556653 -234.30273438 631.16235352 C-234.26130814 630.34593887 -234.2198819 629.52952423 -234.17720032 628.68836975 C-233.69041507 618.34852039 -233.56068939 608.00859834 -233.53320312 597.65844727 C-233.52958771 596.59699493 -233.52597229 595.5355426 -233.52224731 594.44192505 C-233.49388375 573.37209915 -234.95317798 552.53174258 -236.87304688 531.56079102 C-238.58687734 512.74136558 -239.03356828 494.0751486 -239.03100586 475.1862793 C-239.03092492 472.22365166 -239.03782944 469.26117972 -239.05151367 466.29858398 C-239.13469179 448.00406061 -238.64403501 429.9462144 -236.84570312 411.72094727 C-235.22900615 393.85089217 -234.5986932 376.0652722 -234.4932251 358.12585449 C-234.47842612 355.80638601 -234.45725772 353.48694778 -234.42913818 351.16760254 C-234.17534627 328.11225851 -235.64295412 305.15662024 -251.47070312 287.03344727 C-252.90639751 285.57333631 -254.36194578 284.13219016 -255.84570312 282.72094727 C-256.34585938 282.21305664 -256.84601563 281.70516602 -257.36132812 281.18188477 C-268.24011001 270.99084196 -284.82048264 269.21519864 -298.95408058 269.58714867 C-301.05568861 269.64058013 -303.15657564 269.6705995 -305.25871277 269.69490051 C-311.22468046 269.76716963 -317.18966525 269.87401618 -323.15454102 270.00878906 C-360.90458757 270.83143406 -360.90458757 270.83143406 -374.95507812 258.63110352 C-383.43265276 250.06595063 -388.96440142 240.64700577 -388.97509766 228.39013672 C-388.97824982 227.34747147 -388.98140198 226.30480621 -388.98464966 225.23054504 C-388.98161331 223.54936836 -388.98161331 223.54936836 -388.97851562 221.83422852 C-388.97947235 220.66321091 -388.98042908 219.4921933 -388.98141479 218.28569031 C-388.98209527 215.80178779 -388.98025019 213.31788348 -388.97607422 210.83398438 C-388.97078656 207.09248678 -388.97599107 203.35111269 -388.98242188 199.60961914 C-388.98768334 179.29237851 -388.98768334 179.29237851 -388.34570312 169.93579102 C-387.51747799 157.72037725 -387.69544426 145.46526731 -387.71533203 133.2277832 C-387.72100688 129.69397348 -387.71766197 126.1602395 -387.71188259 122.62643242 C-387.69328238 109.14390545 -387.77512222 95.68862568 -388.48051453 82.22091675 C-388.89544432 74.25890402 -389.03187599 66.31177102 -389.03100586 58.33959961 C-389.03323932 56.05898564 -389.05167516 53.7788235 -389.0703125 51.49829102 C-389.12812219 36.71102865 -388.14351997 22.68975936 -377.62695312 11.31469727 C-364.47662817 -0.45138296 -347.37862121 -0.48234036 -330.72070312 -0.46655273 C-329.53358231 -0.46764038 -329.53358231 -0.46764038 -328.32247925 -0.46875 C-317.40109296 -0.46766328 -306.55220286 -0.11513286 -295.65460205 0.57983398 C-253.50524659 3.22755331 -211.28387316 1.80635893 -169.11985016 0.32701874 C-112.7179455 -1.65126902 -56.40133437 -2.35281166 0 0 Z " fill="#FEFEFE" transform="translate(891.845703125,99.279052734375)"/>
<path d="M0 0 C1.03620987 -0.00315216 2.07241974 -0.00630432 3.14002991 -0.009552 C4.81179543 -0.00651566 4.81179543 -0.00651566 6.51733398 -0.00341797 C8.26674538 -0.00485306 8.26674538 -0.00485306 10.05149841 -0.00631714 C12.5270086 -0.00699772 15.00252058 -0.00515192 17.47802734 -0.00097656 C21.19755274 0.00430106 24.91695333 -0.00088778 28.63647461 -0.00732422 C38.88750992 -0.00999013 49.11117503 0.00559524 59.34545898 0.62939453 C72.64307099 1.42784406 85.9695906 1.280135 99.28588867 1.25976562 C103.09352038 1.25401748 106.90108234 1.25739557 110.70871162 1.26333809 C113.68405677 1.26697006 116.65938563 1.26579393 119.63473129 1.2632103 C121.03875614 1.26255099 122.44278255 1.26333389 123.84680557 1.26568985 C130.83065648 1.27486081 137.69875932 1.15948275 144.63964844 0.35845947 C179.70196927 -3.53793073 235.71272184 2.57738668 264.38452148 25.09423828 C265.53114258 26.10164063 265.53114258 26.10164063 266.70092773 27.12939453 C267.44947021 27.77932373 267.44947021 27.77932373 268.21313477 28.44238281 C274.80620518 34.20716823 280.96127693 40.2502273 286.70092773 46.87548828 C288.93966905 49.39844481 291.30505946 51.75554036 293.70092773 54.12939453 C306.05126428 66.70135213 315.34250657 81.34860431 319.76342773 98.50439453 C320.01600342 99.45193604 320.2685791 100.39947754 320.52880859 101.37573242 C322.40082141 108.55526259 323.87007146 115.77818715 325.23022461 123.0690918 C326.46368234 129.47117248 328.35356611 135.37468497 330.53295898 141.52392578 C332.50524246 147.61227912 333.64021771 153.82247005 334.70092773 160.12939453 C334.88913086 161.16193359 335.07733398 162.19447266 335.27124023 163.25830078 C336.40094598 173.43592256 335.82844386 183.81698649 335.72052002 194.0447998 C335.70095294 196.12671216 335.68915546 198.20854986 335.67895508 200.29052734 C335.58086203 216.70648871 335.17330259 232.47800637 329.70092773 248.12939453 C329.41830078 248.94762695 329.13567383 249.76585937 328.84448242 250.60888672 C320.71492617 273.55308393 308.48933837 292.584802 291.70092773 310.12939453 C290.81405273 311.06912109 289.92717773 312.00884766 289.01342773 312.97705078 C281.24279356 321.00745906 272.77899827 327.80601207 263.45092773 333.94189453 C260.59826736 335.89557083 260.59826736 335.89557083 259.45092773 338.62939453 C259.82802709 342.40038811 261.93360568 343.63804858 264.70092773 346.12939453 C266.66356702 347.41737656 268.66694732 348.64481332 270.70092773 349.81689453 C282.53574361 356.86428954 292.75096741 365.66044057 302.70092773 375.12939453 C303.53108398 375.88349609 304.36124023 376.63759766 305.21655273 377.41455078 C331.29844799 401.93994584 345.93183292 438.41835246 351.70092773 473.12939453 C351.85190918 474.02867676 352.00289062 474.92795898 352.15844727 475.85449219 C354.6813758 491.77860749 355.01237614 507.66797818 355.07592773 523.75439453 C355.08378296 524.73590485 355.09163818 525.71741516 355.09973145 526.72866821 C355.20754146 544.03380366 353.6190521 559.52547368 347.38842773 575.81689453 C346.99107422 576.89068359 346.5937207 577.96447266 346.18432617 579.07080078 C343.6827044 585.76339861 340.93614737 592.29581091 338.02905273 598.82080078 C336.48053584 602.67842964 335.32444798 606.569035 334.20092773 610.56689453 C329.04565851 628.79649932 321.31561408 645.82458516 308.70092773 660.12939453 C308.02674805 660.92345703 307.35256836 661.71751953 306.65795898 662.53564453 C291.75740046 679.68892866 273.82420641 692.72324315 253.70092773 703.12939453 C252.99838867 703.49629395 252.29584961 703.86319336 251.57202148 704.24121094 C233.57624434 713.52481064 214.49444016 720.09165991 194.76342773 724.56689453 C193.73604492 724.80174561 192.70866211 725.03659668 191.65014648 725.27856445 C171.16088026 729.63479147 150.42940152 729.54784233 129.58824921 729.73028564 C126.92453771 729.75463577 124.2608909 729.78275803 121.597229 729.81201172 C95.90552276 730.09172691 70.21422801 730.15868443 44.52124023 730.15283203 C43.81035437 730.15270001 43.0994685 730.15256799 42.36704063 730.15243196 C28.06603825 730.14954102 13.7650608 730.13991961 -0.5359062 730.10675347 C-6.6289564 730.09264331 -12.7220072 730.08284356 -18.81506729 730.07408524 C-22.52833463 730.06712381 -26.24155272 730.05446351 -29.95480347 730.04159546 C-41.41425195 730.01696588 -52.81130842 730.16127484 -64.2492218 730.89300537 C-70.44503462 731.28409619 -76.64813724 731.35143813 -82.85498047 731.36962891 C-84.20887461 731.376218 -85.56275026 731.39005757 -86.91650391 731.41064453 C-99.86649129 731.60743883 -110.43759136 730.17192893 -120.29907227 721.12939453 C-129.34189113 709.9131943 -130.92386489 697.05341539 -130.71069336 683.19726562 C-130.67464629 680.79268577 -130.66967272 678.38968321 -130.67016602 675.98486328 C-130.63051772 667.43068959 -130.15907553 659.00992256 -129.29125977 650.50048828 C-128.05582668 638.18471793 -127.99308014 625.93516757 -128.04907227 613.56689453 C-128.05117706 612.39554962 -128.05328186 611.22420471 -128.05545044 610.0173645 C-128.08998892 593.43875312 -128.53149638 576.92039963 -129.37408447 560.36502075 C-130.70768492 534.00096934 -131.02969457 507.61985617 -131.27897644 481.22628784 C-131.2993697 479.09835922 -131.32090781 476.97044452 -131.34265137 474.8425293 C-131.95167629 414.37010744 -131.95167629 414.37010744 -129.58795166 389.0559082 C-127.09094068 362.19383526 -127.40494666 335.17204429 -129.79907227 308.31689453 C-131.47927873 289.39971778 -131.64420818 270.50971198 -131.66921997 251.53198624 C-131.67397219 249.17894698 -131.68456946 246.82600318 -131.69677734 244.47299194 C-131.800088 222.02034521 -131.56152142 199.19061252 -127.7628479 176.9964447 C-127.36149089 174.51526502 -127.16203263 172.22409036 -127.13793945 169.7175293 C-127.12845779 168.89601379 -127.11897614 168.07449829 -127.10920715 167.22808838 C-127.10264351 165.91273102 -127.10264351 165.91273102 -127.09594727 164.57080078 C-127.08911423 163.64144714 -127.08228119 162.71209351 -127.07524109 161.75457764 C-127.05812627 158.73364652 -127.05190399 155.7128714 -127.04907227 152.69189453 C-127.04706818 151.66405853 -127.04506409 150.63622253 -127.04299927 149.57723999 C-127.03414499 131.02824211 -128.34719386 112.99947946 -130.61108398 94.5925293 C-131.5564194 85.83236411 -131.52075653 77.03538575 -131.53930664 68.23413086 C-131.5489908 65.46518658 -131.5800894 62.69699308 -131.61157227 59.92822266 C-131.71223368 43.18690115 -130.93792566 25.42417186 -119.17407227 12.25439453 C-110.1770972 4.09527524 -98.54343634 0.78097605 -86.66748047 0.91821289 C-85.84529022 0.91952713 -85.02309998 0.92084137 -84.17599487 0.92219543 C-81.48382636 0.92863704 -78.79195074 0.9490432 -76.09985352 0.96923828 C-74.21754769 0.97551601 -72.33523814 0.98075367 -70.45292664 0.98500061 C-65.51469784 0.998257 -60.57659446 1.02267101 -55.63842773 1.050354 C-47.72479743 1.09359876 -39.8111328 1.12322202 -31.89742088 1.14639473 C-29.13821642 1.15659644 -26.37911426 1.17364508 -23.61994934 1.19139099 C-21.92746064 1.19821974 -20.23497103 1.20482846 -18.54248047 1.21118164 C-17.77821243 1.21791901 -17.0139444 1.22465637 -16.22651672 1.2315979 C-10.70925925 1.24336719 -5.49801995 0.00482993 0 0 Z " fill="#FEDD58" transform="translate(1080.299072265625,1207.87060546875)"/>
<path d="M0 0 C15.61817669 9.06121879 24.33690449 21.91418661 29.21484375 38.92578125 C29.54326089 40.22029628 29.86736473 41.51591202 30.1875 42.8125 C30.37078857 43.49957031 30.55407715 44.18664063 30.74291992 44.89453125 C35.85132221 65.35554353 31.96734081 87.36388295 22.0703125 105.72265625 C13.14107824 120.37623363 -0.10213798 129.63188757 -16.8125 133.8125 C-19.89119419 134.17631263 -22.90336949 134.19667085 -26 134.125 C-26.82588623 134.11154541 -27.65177246 134.09809082 -28.50268555 134.08422852 C-42.39669389 133.74915752 -55.02420197 132.04375716 -66.10546875 122.92578125 C-72.61117256 116.08716296 -75.9203199 106.75200697 -75.95776367 97.40258789 C-75.96414352 96.31526871 -75.97052338 95.22794952 -75.97709656 94.10768127 C-75.97820938 92.92874802 -75.9793222 91.74981476 -75.98046875 90.53515625 C-75.98379715 89.30002792 -75.98712555 88.0648996 -75.99055481 86.79234314 C-75.99562667 84.16027258 -75.99839523 81.52830502 -75.99780273 78.89624023 C-75.99768421 74.97696892 -76.01796938 71.05789679 -76.03710938 67.13867188 C-76.07023626 54.07976372 -75.86301013 41.03714586 -75.17578125 27.99609375 C-75.10945747 26.22734642 -75.10945747 26.22734642 -75.04179382 24.42286682 C-74.50275651 15.84159252 -72.23351566 9.00427139 -65.86738586 2.96824646 C-47.27377717 -12.1573638 -20.51100605 -10.21985238 0 0 Z " fill="#010000" transform="translate(1205.8125,1646.1875)"/>
<path d="M0 0 C11.70033111 9.86291449 18.18859481 22.44584794 20.1875 37.6875 C21.71219745 57.05025007 18.40447894 75.41763174 5.5 90.625 C-4.75957543 101.14764147 -17.94590022 106.67540841 -32.60083008 107.05639648 C-47.32790954 107.09486446 -59.89894721 105.29499103 -71.1875 95 C-84.48012298 80.80849063 -84.18662985 58.71572761 -84.18310547 40.47705078 C-84.18752086 37.92544753 -84.22413496 35.37552344 -84.26171875 32.82421875 C-84.34906939 20.12746533 -83.13597206 8.22383672 -73.8125 -1.3125 C-54.77823437 -17.77456757 -19.49523559 -14.40809499 0 0 Z " fill="#010100" transform="translate(1210.8125,1361.3125)"/>
</svg>
