<?xml version="1.0" encoding="UTF-8"?>
<svg version="1.1" xmlns="http://www.w3.org/2000/svg" width="2000" height="2000">
<path d="M0 0 C660 0 1320 0 2000 0 C2000 660 2000 1320 2000 2000 C1340 2000 680 2000 0 2000 C0 1340 0 680 0 0 Z " fill="#000000" transform="translate(0,0)"/>
<path d="M0 0 C3.60754542 0.00539721 7.21496786 -0.00001393 10.82250977 -0.00634766 C23.0142158 -0.00955599 35.16263552 0.1998043 47.34118652 0.76971436 C55.68555609 1.15395065 64.01223739 1.2846459 72.36474609 1.26074219 C74.63849206 1.25525427 76.91204991 1.26081612 79.18579102 1.26708984 C86.24571623 1.27018184 93.21679371 1.10993909 100.24511719 0.37060547 C114.25420461 -0.95831982 128.4503105 -1.66784849 140.15258789 7.13037109 C146.56805134 13.22967208 149.47434567 22.54832342 149.87483978 31.2412796 C149.92155785 33.77211818 149.93556897 36.30124884 149.9387207 38.83251953 C149.94368561 39.79268982 149.94865051 40.75286011 149.95376587 41.74212646 C149.96833028 44.90800706 149.97518001 48.07383755 149.98071289 51.23974609 C149.98646911 53.4492391 149.99222679 55.6587321 149.99798584 57.8682251 C150.00847961 62.49825268 150.01433288 67.12826299 150.01782227 71.75830078 C150.02330305 77.67389728 150.04732929 83.58926318 150.07579422 89.50478745 C150.0944721 94.06887467 150.09962895 98.63290691 150.10115814 103.19702911 C150.10417364 105.37698883 150.11216464 107.55694784 150.12534332 109.73686981 C150.14251129 112.79497031 150.14049731 115.85251462 150.1340332 118.91064453 C150.14324799 119.80033936 150.15246277 120.69003418 150.16195679 121.60668945 C150.10584909 130.13485595 148.36233636 138.45969932 142.77758789 145.13037109 C135.96935004 151.22552667 129.03596871 152.45171829 120.16821289 152.18505859 C118.50936723 152.15975529 116.8505126 152.13503417 115.19165039 152.11083984 C112.61355638 152.06143045 110.03594799 152.00558876 107.45825195 151.93847656 C91.77010649 151.25478158 91.77010649 151.25478158 77.86132812 157.68457031 C70.89372451 164.59290848 68.97686535 175.4280278 68.64819336 184.83300781 C68.64706543 186.14543457 68.6459375 187.45786133 68.64477539 188.81005859 C68.64381866 189.53991974 68.64286194 190.26978088 68.64187622 191.02175903 C68.64119838 192.56984544 68.64302495 194.11793475 68.6472168 195.66601562 C68.65243036 197.93675896 68.64733281 200.20729129 68.64086914 202.47802734 C68.63861033 210.04553829 68.77510467 217.58823013 69.14181519 225.14731693 C69.91637371 241.49259617 69.89261498 257.82537108 69.84618926 274.18333316 C69.83567993 278.35114422 69.83164269 282.51896172 69.82710266 286.68678284 C69.81985771 292.90760196 69.81100648 299.12841455 69.79994303 305.34922808 C69.76497876 325.04579441 69.75961217 344.74237125 69.75805664 364.43896484 C69.75795711 365.38286324 69.75785758 366.32676163 69.75775504 367.299263 C69.75450859 403.41464244 69.82032484 439.52900338 70.05334461 475.64367837 C70.08307622 480.35156077 70.10511089 485.05942574 70.12402344 489.7673645 C70.09563275 525.15376561 70.09563275 525.15376561 73.14550781 560.36621094 C74.57521497 571.71089717 74.85014275 582.08082817 68.77758789 592.13037109 C63.8590012 598.0303385 57.27268515 600.9145803 49.77758789 602.13037109 C47.71529727 602.22090485 45.65045735 602.26100855 43.58618164 602.26318359 C41.79664063 602.26511719 41.79664063 602.26511719 39.97094727 602.26708984 C38.73151367 602.26322266 37.49208008 602.25935547 36.21508789 602.25537109 C34.39654297 602.26117187 34.39654297 602.26117187 32.54125977 602.26708984 C31.33920898 602.26580078 30.1371582 602.26451172 28.89868164 602.26318359 C27.82030029 602.26205566 26.74191895 602.26092773 25.63085938 602.25976562 C22.53242073 602.15571871 19.52474958 601.92299648 16.44311523 601.6237793 C9.11505536 600.98732005 1.81002209 601.03240199 -5.53730202 601.08577156 C-8.04796052 601.10342114 -10.55855327 601.11354021 -13.06925964 601.12168884 C-20.19809149 601.14592881 -27.32683306 601.18182201 -34.45556641 601.22631836 C-38.83954483 601.25316435 -43.22347381 601.27016075 -47.60751915 601.28118706 C-49.26803113 601.28736762 -50.92853374 601.29733595 -52.58899879 601.31126595 C-54.90933113 601.33058203 -57.22940251 601.33739105 -59.54980469 601.34155273 C-60.86596268 601.34901016 -62.18212067 601.35646759 -63.53816223 601.364151 C-70.60285449 600.91586895 -75.31599635 599.00243631 -80.42553711 594.25927734 C-88.00166197 585.28321637 -87.455369 573.07110164 -87.47241211 562.00537109 C-87.47474854 561.30576263 -87.47708496 560.60615417 -87.47949219 559.88534546 C-87.49317956 548.82423428 -86.79627013 537.9459181 -85.72241211 526.94287109 C-84.33005097 512.61574613 -83.93855006 498.39834585 -83.97241211 484.00537109 C-83.97345947 483.03266266 -83.97450684 482.05995422 -83.97558594 481.05776978 C-83.98197997 478.26674661 -83.99792544 475.47600451 -84.01928711 472.68505859 C-84.02365784 471.86667007 -84.02802856 471.04828156 -84.03253174 470.20509338 C-84.08056903 466.22827383 -84.27752387 462.33378596 -84.72241211 458.38085938 C-85.39581157 452.11466751 -85.40295008 445.86504505 -85.42553711 439.56787109 C-85.43571869 437.629179 -85.43571869 437.629179 -85.44610596 435.65132141 C-85.46176461 432.19109717 -85.46825885 428.7309212 -85.47079468 425.27066422 C-85.47187623 423.83948835 -85.47360945 422.40831283 -85.47598267 420.97713852 C-85.50502743 403.08963774 -85.25848374 385.39316219 -83.29858398 367.59375 C-82.20506825 357.3704344 -81.94158984 347.27596182 -81.97241211 337.00537109 C-81.97345947 336.26719147 -81.97450684 335.52901184 -81.97558594 334.76846313 C-82.01382248 322.19200266 -82.47518018 309.62864896 -84.0222168 297.13818359 C-85.3169852 286.31796293 -85.44360513 275.51182742 -85.47241211 264.63037109 C-85.48004074 263.49107651 -85.48004074 263.49107651 -85.48782349 262.32876587 C-85.53565935 253.44388371 -85.16492789 244.72186956 -84.23022461 235.88427734 C-83.16264145 225.71604982 -82.85003913 215.62714256 -82.85180664 205.40649414 C-82.8473646 202.53718529 -82.81064002 199.66933931 -82.77319336 196.80029297 C-82.68563292 182.63037459 -83.90123116 170.79106457 -94.22241211 160.13037109 C-104.55977827 151.77241247 -116.25007166 152.7378176 -128.78491211 153.13037109 C-150.90926875 153.82182155 -150.90926875 153.82182155 -161.53491211 147.00537109 C-168.31247128 139.75495896 -169.965092 132.27716888 -169.86938477 122.59716797 C-169.87814636 121.49011002 -169.88690796 120.38305206 -169.89593506 119.2424469 C-169.91780361 115.61093051 -169.90341956 111.98064821 -169.88647461 108.34912109 C-169.88984631 105.80903898 -169.89470187 103.26895845 -169.90097046 100.72888184 C-169.90832489 95.41641321 -169.89816472 90.10438011 -169.87426758 84.79199219 C-169.84706185 78.67393697 -169.85587835 72.55671522 -169.88339961 66.43868017 C-169.90893425 60.5226135 -169.90609115 54.60680288 -169.89149094 48.69068909 C-169.88816751 46.18697491 -169.89220632 43.6832393 -169.9038887 41.17955017 C-169.91665937 37.67366066 -169.89713053 34.16934706 -169.86938477 30.66357422 C-169.87950592 29.6399025 -169.88962708 28.61623077 -169.90005493 27.5615387 C-169.78861876 19.91920658 -167.87193697 13.43711155 -162.85067177 7.51160431 C-156.51018733 1.70813294 -149.13602732 0.68298638 -140.96191406 0.80566406 C-140.07098557 0.80683228 -139.18005707 0.80800049 -138.26213074 0.8092041 C-135.32807764 0.81636364 -132.39461553 0.84459947 -129.46069336 0.87255859 C-127.38926207 0.88071581 -125.31782439 0.88737135 -123.24638367 0.89260864 C-117.78463787 0.90970757 -112.32314118 0.94388072 -106.86151123 0.98266602 C-97.1655102 1.04884425 -87.46934386 1.08612978 -77.77319336 1.12255859 C-76.72929758 1.12702625 -75.6854018 1.13149391 -74.60987282 1.13609695 C-61.40377271 1.18872284 -48.24553969 1.05753024 -35.05020142 0.50366211 C-23.36676095 0.01719861 -11.69227913 -0.02070981 0 0 Z " fill="#FEFEFE" transform="translate(707.222412109375,419.86962890625)"/>
<path d="M0 0 C4.42289014 -0.01548808 8.84557688 -0.04024283 13.26837158 -0.07305908 C18.5801279 -0.11173898 23.8915933 -0.12954805 29.20348549 -0.13291168 C31.1693532 -0.13732693 33.13522064 -0.14845307 35.10100365 -0.1672287 C48.81593571 -0.29140023 61.55003989 1.22747608 74.91970825 4.28610229 C75.67150612 4.45788687 76.42330399 4.62967144 77.19788361 4.80666161 C91.50051677 8.1078507 101.96049177 13.25913918 112.16970825 23.91110229 C113.03724731 24.80265015 113.90478638 25.694198 114.7986145 26.61276245 C122.42813083 34.58236534 128.87813552 41.79575964 131.84158325 52.65719604 C132.17996216 53.888573 132.51834106 55.11994995 132.86697388 56.38864136 C133.12619629 57.35030212 133.12619629 57.35030212 133.39065552 58.33139038 C133.91303258 60.26143743 134.4504584 62.187391 134.98806763 64.11325073 C143.32204858 94.05380512 143.32204858 94.05380512 142.08718872 109.12399292 C141.90666932 111.45442999 141.81488246 113.77822126 141.7361145 116.11422729 C140.86990179 139.69472663 132.39618374 160.01162414 115.400177 176.77047729 C110.48247247 181.27270756 105.34953873 185.41848561 99.91970825 189.28610229 C100.04523205 191.68312167 100.04523205 191.68312167 100.91970825 194.28610229 C103.05255277 196.09800706 103.05255277 196.09800706 105.79470825 197.53610229 C126.64887548 210.03237371 142.08665025 230.3601976 148.2048645 253.98532104 C151.16026993 266.41552046 152.12783239 278.50771414 152.15994263 291.25949097 C152.16964386 293.58317947 152.20074674 295.90597977 152.23220825 298.22946167 C152.31511616 309.76259041 150.65158009 319.79495442 146.10720825 330.47360229 C144.12338704 335.21438807 142.30813909 339.96844189 140.66360474 344.83786011 C132.36807937 369.35145065 116.20162132 385.71096515 93.20877075 397.30172729 C70.49491463 408.15425696 45.72790989 410.88636539 20.85720825 411.03610229 C18.59792403 411.06028882 16.33864683 411.0851388 14.07937622 411.11056519 C8.84992272 411.16332109 3.62053663 411.19890502 -1.60910034 411.2260437 C-8.65924417 411.26320167 -15.7087324 411.3327299 -22.7585144 411.41256714 C-32.40302426 411.52100964 -42.04743529 411.60309398 -51.6923914 411.65973091 C-57.10701818 411.69181833 -62.52119443 411.73301914 -67.93554688 411.79696655 C-73.10178115 411.8569125 -78.26738355 411.88683063 -83.43395042 411.89505959 C-85.35932799 411.90306268 -87.28469424 411.92142253 -89.20986366 411.9508419 C-107.62519474 412.21997551 -107.62519474 412.21997551 -113.43963623 407.19741821 C-121.00950357 398.37874313 -120.73871356 389.21271688 -120.53341675 378.17282104 C-120.52115461 376.49335762 -120.5113003 374.81387511 -120.50369263 373.13438416 C-120.48329748 369.58379677 -120.44803204 366.03381515 -120.40036011 362.48348999 C-120.32635565 356.93959475 -120.28612265 351.39581154 -120.25411987 345.85153198 C-120.24877731 344.93578085 -120.24343475 344.02002972 -120.2379303 343.07652855 C-120.22726366 341.23675856 -120.21670914 339.39698792 -120.20626831 337.55721664 C-120.18971197 334.82091943 -120.17000865 332.08465983 -120.14962769 329.34838867 C-120.05450377 315.90175829 -120.19129007 302.4783059 -120.58029175 289.03610229 C-120.6733883 285.65203867 -120.76428502 282.2679206 -120.85372925 278.88375854 C-120.87480743 278.093815 -120.89588562 277.30387146 -120.91760254 276.48999023 C-121.15407203 267.15202494 -121.1950779 257.81416963 -121.20529175 248.47360229 C-121.20903809 247.30601379 -121.20903809 247.30601379 -121.21286011 246.11483765 C-121.21872012 243.93620233 -121.2173008 241.75770766 -121.21310425 239.57907104 C-121.21197632 238.35728149 -121.21084839 237.13549194 -121.20968628 235.87667847 C-121.09557311 232.7101458 -120.72945705 229.66906736 -120.30712891 226.53321838 C-119.83931715 221.89893659 -119.9385541 217.24014917 -119.94747925 212.58688354 C-119.94652252 211.47484055 -119.9455658 210.36279755 -119.94458008 209.21705627 C-119.94390197 206.87133731 -119.94573044 204.52561644 -119.94992065 202.17990112 C-119.95524861 198.62736692 -119.94997617 195.0749606 -119.943573 191.52243042 C-119.94423434 189.23141452 -119.94551666 186.9403987 -119.94747925 184.64938354 C-119.94545502 183.60414017 -119.94343079 182.55889679 -119.94134521 181.48197937 C-119.96130643 175.05902949 -120.31683384 168.72670689 -120.85122681 162.32685852 C-121.16269349 158.19224821 -121.24209625 154.07931176 -121.2482605 149.93453979 C-121.2532531 148.69796127 -121.2532531 148.69796127 -121.25834656 147.43640137 C-121.26335031 145.71068875 -121.26575695 143.98496669 -121.26559448 142.25924683 C-121.2677707 139.68599631 -121.28596987 137.11318319 -121.30490112 134.54000854 C-121.33517342 125.32864326 -120.88319625 116.35257919 -119.80476379 107.20489502 C-118.89074539 99.22217289 -118.77305991 91.31309824 -118.83029175 83.28610229 C-118.83206421 82.55119568 -118.83383667 81.81628906 -118.83566284 81.05911255 C-118.86121698 71.97338722 -119.19912308 63.03593957 -120.35519409 54.0163269 C-122.01558543 40.51375443 -123.97553078 23.61667633 -117.08029175 11.28610229 C-113.26712959 6.46947641 -108.210156 2.47876836 -102.08029175 1.28610229 C-100.71112909 1.17662714 -99.33801197 1.11105236 -97.96481323 1.08078003 C-96.72709419 1.05089996 -96.72709419 1.05089996 -95.46437073 1.02041626 C-94.09669304 0.99530975 -94.09669304 0.99530975 -92.7013855 0.96969604 C-91.71092728 0.94868835 -90.72046906 0.92768066 -89.69999695 0.90603638 C-86.30602104 0.83791874 -82.91199166 0.7794222 -79.51779175 0.72360229 C-78.3307666 0.70375275 -77.14374146 0.6839032 -75.92074585 0.66345215 C-50.61610579 0.25872185 -25.30751207 0.08529042 0 0 Z " fill="#FEDD58" transform="translate(919.0802917480469,1043.7138977050781)"/>
<path d="M0 0 C1.24494232 -0.00960754 2.48988464 -0.01921509 3.77255249 -0.02911377 C5.13303443 -0.03396171 6.4935185 -0.03824055 7.85400391 -0.04199219 C9.25021364 -0.04774622 10.64642335 -0.05350393 12.04263306 -0.05926514 C14.96966926 -0.06976567 17.89667808 -0.07561457 20.82373047 -0.07910156 C24.56858159 -0.08458525 28.31306894 -0.10861415 32.05780602 -0.13707352 C34.94205778 -0.15572586 37.82622235 -0.16090686 40.71052933 -0.16243744 C42.09079604 -0.16545851 43.47106142 -0.17346866 44.85126877 -0.18662262 C46.78488687 -0.20373588 48.71865548 -0.19995043 50.65234375 -0.1953125 C52.30089859 -0.20078094 52.30089859 -0.20078094 53.98275757 -0.20635986 C58.59393841 0.36366508 61.13271441 2.27521391 64.24584961 5.62695312 C66.69717855 10.69412973 66.43426829 15.15382825 66.31103516 20.70800781 C66.30300369 21.83321838 66.29497223 22.95842896 66.28669739 24.11773682 C66.25776524 27.71601918 66.20167294 31.31322223 66.14306641 34.91113281 C66.08626002 39.6141885 66.03989219 44.31729226 65.99853516 49.02050781 C65.98821259 50.15564819 65.97789001 51.29078857 65.96725464 52.46032715 C65.92330513 59.18832999 65.98477852 65.89379346 66.31884766 72.61425781 C66.35044479 73.33450134 66.38204193 74.05474487 66.41459656 74.79681396 C66.62933942 78.35612579 67.0417048 81.11491525 68.95556641 84.16113281 C76.04532269 83.70372918 81.45830289 81.92504809 87.95556641 79.16113281 C106.03871707 72.13234634 125.10631397 71.78599766 142.98876953 79.27148438 C159.76159349 86.8583973 170.13278081 101.44676154 176.95556641 118.16113281 C178.97341901 123.72677256 180.61469936 129.39701082 181.95556641 135.16113281 C182.13169464 135.89984619 182.30782288 136.63855957 182.48928833 137.3996582 C184.68364365 148.28064009 184.1852318 159.32858701 184.11572266 170.37207031 C184.10943887 172.63066347 184.10420325 174.88925976 184.09996033 177.14785767 C184.0867209 183.070609 184.06232752 188.99325523 184.03460693 194.91595459 C183.99133972 204.38572707 183.96158223 213.85552576 183.93856621 223.32536697 C183.92845262 226.60988694 183.91139117 229.89431655 183.89356995 233.17880249 C183.85647938 242.41179675 183.93951632 251.53138264 184.7205658 260.73806763 C185.21675489 267.96565578 185.14212844 275.21622107 185.15869141 282.45800781 C185.16293247 283.72738567 185.16293247 283.72738567 185.16725922 285.02240753 C185.18211313 289.48841142 185.19143323 293.95438408 185.19580078 298.42041016 C185.20131058 303.00181086 185.22543075 307.5829182 185.25377274 312.16422653 C185.27246773 315.72119988 185.27760804 319.27810284 185.27913666 322.83512115 C185.28214079 324.52385334 185.29009249 326.21258497 185.30332184 327.90126801 C185.45276525 348.4151488 185.45276525 348.4151488 179.68017578 356.24902344 C174.49608036 359.85876629 167.39571629 358.83111845 161.36181641 358.75488281 C159.92745057 358.7531698 158.4930816 358.75323933 157.05871582 358.75500488 C154.05934503 358.75335539 151.06072505 358.73472777 148.06152344 358.703125 C144.22818527 358.66344768 140.39582909 358.65908191 136.56232452 358.66658783 C133.60246884 358.66966594 130.64283152 358.65750735 127.68302917 358.64045715 C126.27013011 358.63345505 124.85720632 358.63029922 123.44429016 358.63114929 C121.4655574 358.62933997 119.48688186 358.60562136 117.50830078 358.58105469 C115.8233551 358.5684259 115.8233551 358.5684259 114.10437012 358.55554199 C108.63855806 357.87091169 104.38766396 355.45125476 100.95556641 351.16113281 C98.31067134 345.37282224 98.6813548 339.51901648 98.71264648 333.28759766 C98.71074814 332.09655426 98.70884979 330.90551086 98.70689392 329.67837524 C98.7038299 326.42176791 98.70968323 323.16532888 98.71984696 319.90874052 C98.72866831 316.48706452 98.72686914 313.06539233 98.72648621 309.64370728 C98.72742189 303.89216832 98.73608828 298.14068221 98.74975586 292.38916016 C98.76543545 285.76708209 98.7707554 279.14506204 98.77002031 272.52296674 C98.76934089 265.4434138 98.77630886 258.36388283 98.78546691 251.28433657 C98.78758432 249.25982229 98.78830621 247.23531163 98.78870583 245.21079636 C98.79089035 241.4108473 98.7996811 237.61096886 98.81030273 233.81103516 C98.80984955 232.70411316 98.80939636 231.59719116 98.80892944 230.45672607 C98.83443151 224.17129487 99.13838877 217.9761086 99.72463799 211.71737194 C100.23911401 206.02243084 100.2232633 200.31252239 100.26806641 194.59863281 C100.29707031 193.36177734 100.32607422 192.12492188 100.35595703 190.85058594 C100.41002333 182.98601875 99.62568348 176.22064979 95.95556641 169.16113281 C92.03066775 165.23623415 89.16958446 163.98020996 83.70556641 163.78613281 C80.07853077 163.83835453 77.42340457 163.91772143 74.45556641 166.09863281 C71.33889299 169.91655775 70.18065238 173.45468742 68.95556641 178.16113281 C68.62556641 179.15113281 68.29556641 180.14113281 67.95556641 181.16113281 C67.86975483 183.33736534 67.84672701 185.51623154 67.85549927 187.69413757 C67.85676154 188.36075891 67.85802381 189.02738024 67.85932434 189.71420223 C67.86471081 191.95265739 67.87723675 194.19101695 67.88964844 196.42944336 C67.89484082 198.03264726 67.89954912 199.6358528 67.90380859 201.23905945 C67.91375727 204.69469869 67.92661012 208.15031095 67.94153214 211.60593224 C67.96458276 217.07336263 67.97789595 222.54078932 67.98922729 228.008255 C68.02266965 243.55690162 68.06421622 259.10549472 68.12695312 274.65405273 C68.16151093 283.23903818 68.18529822 291.8239836 68.19716156 300.40903121 C68.20392504 304.95105136 68.21635144 309.49290187 68.24219131 314.0348568 C68.26651327 318.3103848 68.27683557 322.58571978 68.27659607 326.86131477 C68.27901062 328.42699237 68.28655533 329.99267213 68.29972458 331.5582962 C68.41991362 346.47442634 68.41991362 346.47442634 64.95556641 353.16113281 C60.51580335 357.48990179 56.99843214 358.27674618 50.94287109 358.42993164 C49.08514069 358.47921562 49.08514069 358.47921562 47.18988037 358.52949524 C45.83574993 358.55977039 44.48160284 358.58930829 43.12744141 358.61816406 C42.44387825 358.63327215 41.76031509 358.64838024 41.0560379 358.66394615 C37.43654541 358.74301688 33.81698367 358.81562715 30.19726562 358.88354492 C26.47014638 358.95491033 22.7440236 359.04993498 19.01758957 359.1503191 C16.14205619 359.22321058 13.2663772 359.27771344 10.39035797 359.3273983 C9.01719046 359.35437034 7.64413992 359.38827163 6.27132416 359.42942238 C-7.66566251 359.83531689 -7.66566251 359.83531689 -13.04443359 355.16113281 C-16.65643267 348.8669407 -16.44585987 342.98300389 -16.36914062 335.85449219 C-16.36797241 334.62910736 -16.3668042 333.40372253 -16.36560059 332.14120483 C-16.36088787 329.48533187 -16.35073702 326.83016139 -16.3310585 324.17442322 C-16.29985221 319.9607224 -16.28973223 315.74712521 -16.28219604 311.5333252 C-16.26772573 304.85419208 -16.23882655 298.17521004 -16.20394886 291.49615526 C-16.14211004 279.57216561 -16.10417211 267.64808978 -16.0723561 255.72398615 C-16.06064667 251.55034436 -16.04241545 247.37679625 -16.01896524 243.20320469 C-15.87395994 225.63615026 -15.87395994 225.63615026 -16.81243896 208.10447693 C-17.26831124 202.32076981 -17.19043472 196.52181997 -17.16943359 190.72363281 C-17.16854736 190.05826508 -17.16766113 189.39289734 -17.16674805 188.70736694 C-17.14730467 175.93699645 -16.82414893 163.1778916 -16.47424316 150.4130249 C-16.16937397 139.22368243 -15.93699387 128.04257803 -15.91943359 116.84863281 C-15.91492187 115.71208252 -15.91041016 114.57553223 -15.90576172 113.40454102 C-15.90769531 112.3380835 -15.90962891 111.27162598 -15.91162109 110.17285156 C-15.91274902 109.27010498 -15.91387695 108.3673584 -15.91503906 107.43725586 C-16.02235033 104.72025593 -16.25519194 102.08661023 -16.54003906 99.38549805 C-17.28671486 91.45737638 -17.22907921 83.51509472 -17.24755859 75.55957031 C-17.25038597 74.73138416 -17.25321335 73.90319801 -17.2561264 73.04991531 C-17.27101427 68.67585187 -17.28031206 64.30182059 -17.28466797 59.92773438 C-17.29016976 55.4347051 -17.31426345 50.94197619 -17.34263992 46.44904137 C-17.36132727 42.96759181 -17.36647491 39.48621424 -17.36800385 36.00471878 C-17.37101183 34.3486528 -17.37897694 32.69258751 -17.39218903 31.0365715 C-17.53797539 11.37839647 -17.53797539 11.37839647 -11.54443359 3.66113281 C-7.83747575 -0.04582503 -5.03629073 0.03133441 0 0 Z " fill="#FEDD58" transform="translate(1236.04443359375,629.8388671875)"/>
<path d="M0 0 C8.69584433 7.7722889 15.62375067 16.27044887 21.20800781 26.49462891 C21.52850098 27.0726123 21.84899414 27.6505957 22.17919922 28.24609375 C33.69141426 49.47450052 33.96177608 71.27394796 33.72619629 94.79266357 C33.70179063 97.99889601 33.70748978 101.20479221 33.71346283 104.4110899 C33.71654385 107.52973362 33.70437812 110.64817056 33.68733215 113.76676369 C33.68036966 115.24137896 33.67716929 116.71601757 33.67802429 118.19064903 C33.66907026 128.3272458 33.57256817 137.68157348 26.27050781 145.43212891 C25.60148437 146.16302734 24.93246094 146.89392578 24.24316406 147.64697266 C20.15662927 151.35701288 17.09144792 151.73357317 11.60644531 151.65478516 C9.66318359 151.63834961 9.66318359 151.63834961 7.68066406 151.62158203 C6.31476706 151.60084704 4.94888131 151.57935802 3.58300781 151.55712891 C-4.07294134 151.45087328 -11.60240267 151.36078883 -19.21337891 152.26098633 C-24.80581795 152.76770515 -30.43139284 152.63734659 -36.04199219 152.61962891 C-37.90210938 152.62542969 -37.90210938 152.62542969 -39.79980469 152.63134766 C-40.99863281 152.63005859 -42.19746094 152.62876953 -43.43261719 152.62744141 C-44.5105957 152.62631348 -45.58857422 152.62518555 -46.69921875 152.62402344 C-49.80937823 152.49390151 -52.72799087 152.02444151 -55.79199219 151.49462891 C-59.20780514 151.29211708 -62.62066563 151.30956228 -66.04199219 151.30712891 C-66.93273437 151.29488281 -67.82347656 151.28263672 -68.74121094 151.27001953 C-74.78288056 151.2568664 -81.05458924 151.42309947 -86.79199219 153.49462891 C-90.20984356 158.62140596 -89.41683102 164.52040455 -88.79199219 170.49462891 C-86.45205864 177.93020287 -82.8321399 182.22494822 -76.07324219 186.02197266 C-72.53578996 187.60961491 -69.56954162 188.15999296 -65.72949219 188.61962891 C-58.96966966 189.45634961 -58.96966966 189.45634961 -56.39526367 190.01098633 C-38.93327025 193.25512109 -13.52106577 191.63734926 1.76660156 181.85791016 C6.25708355 179.35042502 11.21477575 180.00004825 16.20800781 180.49462891 C20.99195207 182.11775285 23.41915896 184.31135563 26.20800781 188.49462891 C27.79992002 191.93244987 28.46643176 194.66967272 28.5144043 198.44921875 C28.53838539 199.88628677 28.53838539 199.88628677 28.56285095 201.35238647 C28.56821365 202.37643585 28.57357635 203.40048523 28.57910156 204.45556641 C28.58813004 205.51949615 28.59715851 206.5834259 28.60646057 207.67959595 C28.62094814 209.9271565 28.62984609 212.17475908 28.63354492 214.42236328 C28.64544255 217.85082396 28.6946463 221.2774852 28.74511719 224.70556641 C28.75458186 226.89305765 28.76181668 229.08055992 28.76660156 231.26806641 C28.78613388 232.28806732 28.8056662 233.30806824 28.82579041 234.35897827 C28.78338953 241.08670068 27.69494223 244.43587201 23.20800781 249.49462891 C6.82653238 265.10993288 -43.33765126 261.09254595 -64.78808594 260.71337891 C-82.09165501 260.23531373 -98.3343914 259.08313911 -114.79199219 253.49462891 C-115.98179687 253.12466797 -117.17160156 252.75470703 -118.39746094 252.37353516 C-126.67359131 249.56954726 -132.33633641 245.27763855 -138.79199219 239.49462891 C-139.94840357 238.52400384 -141.10875203 237.55805515 -142.27246094 236.59619141 C-152.87787818 227.79492066 -161.74999624 219.62150957 -166.79199219 206.49462891 C-167.2109375 205.49689453 -167.62988281 204.49916016 -168.06152344 203.47119141 C-174.68851966 187.25407075 -177.91703816 170.22145081 -178.35449219 152.74462891 C-178.53174972 144.49417988 -178.53174972 144.49417988 -179.31152344 136.28759766 C-179.85337218 132.01007629 -179.93916231 127.86182724 -179.91699219 123.55712891 C-179.92085937 122.81011719 -179.92472656 122.06310547 -179.92871094 121.29345703 C-179.92241629 117.64570654 -179.75292119 114.18175088 -179.29980469 110.55322266 C-178.75516468 106.09922415 -178.69014956 101.66343002 -178.65136719 97.18212891 C-178.41119659 72.33350924 -177.97868154 48.36276634 -164.79199219 26.49462891 C-164.21320312 25.48400391 -163.63441406 24.47337891 -163.03808594 23.43212891 C-149.42379853 0.68900377 -127.51384041 -10.75857188 -102.79199219 -17.50537109 C-101.62925781 -17.84697266 -100.46652344 -18.18857422 -99.26855469 -18.54052734 C-68.48086601 -26.25539106 -24.90014623 -20.91747979 0 0 Z " fill="#FEDD58" transform="translate(1002.7919921875,730.50537109375)"/>
<path d="M0 0 C2.28623775 0.01075417 4.57169567 0.0000358 6.85791016 -0.01269531 C8.33577644 -0.01137406 9.81364225 -0.00881236 11.29150391 -0.00488281 C12.61037598 -0.00262695 13.92924805 -0.00037109 15.28808594 0.00195312 C22.63965668 0.49347987 27.96122443 1.93650773 33.15869141 7.26074219 C34.44170987 10.71751989 34.29869952 14.20789734 34.31982422 17.86181641 C34.32478912 18.51600555 34.32975403 19.1701947 34.33486938 19.84420776 C34.34943489 22.00129257 34.35628323 24.15830385 34.36181641 26.31542969 C34.36757205 27.81991578 34.37332973 29.32440186 34.37908936 30.82888794 C34.38958308 33.9811436 34.39543653 37.13337387 34.39892578 40.28564453 C34.4044101 44.31621277 34.4284434 48.34644313 34.45689774 52.37690544 C34.47556009 55.48423227 34.4807316 58.59147823 34.48226166 61.69885635 C34.48528011 63.18435642 34.49328132 64.66985534 34.50644684 66.15530014 C34.52358507 68.23741844 34.5216089 70.31871786 34.51513672 72.40087891 C34.52060516 74.17481522 34.52060516 74.17481522 34.52618408 75.98458862 C33.96902157 80.95162626 32.31323426 84.19279005 28.65869141 87.57324219 C24.85820599 90.13856984 21.86521298 90.36743124 17.35766602 90.49902344 C7.19896246 90.8324193 -0.83830865 91.75146802 -8.21630859 99.38574219 C-18.53241004 112.15607744 -18.23325001 128.8458873 -18.2668457 144.50732422 C-18.27876105 147.12529649 -18.328129 149.74091876 -18.37841797 152.35839844 C-18.50035586 165.1087691 -17.24616734 178.41137483 -8.64208984 188.61621094 C-1.53556884 195.10611406 6.54520111 198.3613491 16.09619141 198.63574219 C22.00412452 198.99719801 25.52600075 199.55458966 30.15869141 203.26074219 C33.0938457 207.20679342 33.52281559 210.01199984 33.47094727 214.88354492 C33.46805695 215.52812653 33.46516663 216.17270813 33.46218872 216.83682251 C33.44826908 218.95647033 33.41184634 221.07499868 33.37353516 223.19433594 C33.35563345 224.67496335 33.3385202 226.15560049 33.32215881 227.63624573 C33.28419092 230.73569006 33.23471772 233.83469147 33.17749023 236.93383789 C33.10552819 240.89581591 33.06514347 244.85738737 33.03380489 248.81986904 C33.00560474 251.87683856 32.959052 254.93332531 32.90719795 257.98997688 C32.88489798 259.4502583 32.86858854 260.91064446 32.85850334 262.37106133 C32.84191179 264.41771401 32.800179 266.46241865 32.75219727 268.50854492 C32.7342662 269.67038803 32.71633514 270.83223114 32.69786072 272.02928162 C31.94841216 276.5210311 29.94514189 279.83079827 26.37744141 282.68652344 C21.28013099 285.31627222 17.59574248 286.38655436 11.89697266 286.39355469 C10.35481079 286.39681763 10.35481079 286.39681763 8.78149414 286.40014648 C7.68909424 286.39539307 6.59669434 286.39063965 5.47119141 286.38574219 C4.34720947 286.3816333 3.22322754 286.37752441 2.06518555 286.37329102 C-24.49020793 286.19669812 -52.09946436 284.16328987 -72.44287109 264.84667969 C-95.30307798 240.19935565 -105.9364504 205.99477947 -106.04443359 173.04199219 C-106.04726097 172.36433304 -106.05008835 171.68667389 -106.0530014 170.98847961 C-106.06792936 167.38700995 -106.07719353 163.78557952 -106.08154297 160.18408203 C-106.08588721 157.26370471 -106.09962848 154.34362956 -106.12255859 151.42333984 C-106.43591821 110.65114644 -102.81460992 65.4418918 -74.84130859 33.26074219 C-74.39787109 32.67421875 -73.95443359 32.08769531 -73.49755859 31.48339844 C-61.87990409 16.43003513 -42.80175292 7.11288317 -24.84130859 2.26074219 C-24.1577832 2.07382812 -23.47425781 1.88691406 -22.77001953 1.69433594 C-15.24449588 -0.10185337 -7.68799366 -0.04305144 0 0 Z " fill="#FDDD58" transform="translate(1161.84130859375,705.7392578125)"/>
<path d="M0 0 C7.71682404 6.77794378 10.80929122 14.36120699 11.62498474 24.58279037 C11.74655615 28.66603343 11.77285147 32.73919195 11.76367188 36.82373047 C11.77102596 38.38372907 11.77961604 39.94372224 11.78933716 41.50370789 C11.81140519 45.70785251 11.81449182 49.91180035 11.81258965 54.11599493 C11.81246942 57.63283255 11.82105347 61.14962924 11.82936716 64.66645539 C11.84854286 72.95963127 11.85150415 81.25270648 11.84472656 89.54589844 C11.8380683 98.09572906 11.86103487 106.6451302 11.89804029 115.19487369 C11.92871613 122.54970274 11.94010029 129.90439333 11.93620348 137.25928509 C11.93413623 141.64632535 11.93961354 146.03303012 11.96409607 150.42000961 C11.9863299 154.53905729 11.98451415 158.65740235 11.96416855 162.77645302 C11.96075407 164.28694643 11.96586657 165.79748693 11.98015213 167.30791664 C11.99832003 169.37112787 11.98562048 171.43194789 11.96520996 173.49508667 C11.96592247 174.64871138 11.96663498 175.80233608 11.96736908 176.99091911 C11.15339715 180.99496761 9.43758022 182.48381314 6.34375 185.05859375 C2.94182712 186.75955519 -0.93602843 186.24351403 -4.6796875 186.26171875 C-6.02626938 186.27026886 -6.02626938 186.27026886 -7.40005493 186.2789917 C-9.30152201 186.2884467 -11.2030055 186.29497766 -13.10449219 186.29882812 C-16.01266088 186.30853172 -18.92012232 186.33954931 -21.828125 186.37109375 C-23.67447496 186.37762397 -25.52082999 186.38287437 -27.3671875 186.38671875 C-28.67204605 186.40523895 -28.67204605 186.40523895 -30.00326538 186.4241333 C-36.02761712 186.40192495 -36.02761712 186.40192495 -39.18994141 184.67480469 C-40.86744405 182.8258091 -41.3179101 181.51155802 -41.65625 179.05859375 C-46.51825666 179.74951049 -49.30290258 181.71711666 -53.1796875 184.5859375 C-60.20760757 188.76500038 -67.50927264 188.39366742 -75.46875 188.37109375 C-76.59345703 188.38720703 -77.71816406 188.40332031 -78.87695312 188.41992188 C-89.79737615 188.42626727 -98.47644329 185.951803 -107.65625 180.05859375 C-108.39746094 179.589375 -109.13867188 179.12015625 -109.90234375 178.63671875 C-121.63197981 170.42394064 -128.57770755 157.03010609 -131.24389648 143.20092773 C-132.03639456 137.16170764 -131.98924327 131.09081393 -131.97192383 125.00976562 C-131.96876533 122.69483215 -131.99228941 120.38118255 -132.01757812 118.06640625 C-132.08909192 101.36860558 -128.60066237 89.19953538 -117.328125 76.61328125 C-102.83825179 62.75892879 -87.20839405 57.32769437 -67.41375732 57.67892456 C-65.05364253 57.74546245 -62.69689776 57.84265614 -60.33837891 57.95141602 C-59.59573792 57.98069183 -58.85309692 58.00996765 -58.08795166 58.04013062 C-56.04892544 58.12769209 -54.01137118 58.24777887 -51.97412109 58.36987305 C-48.58804103 58.34865708 -48.58804103 58.34865708 -46.22119141 56.19262695 C-44.35800849 53.65189655 -44.23413451 52.64003683 -44.65625 49.55859375 C-45.14390857 46.67525328 -45.62112428 45.11338987 -47.21875 42.62109375 C-57.42412253 36.07918828 -74.18491292 37.85930297 -85.65625 39.05859375 C-90.92687743 40.27666772 -95.71228157 42.26527381 -100.60546875 44.52734375 C-104.82151614 46.3580912 -109.11629208 46.97536472 -113.65625 46.05859375 C-116.81277914 43.68141962 -118.41018543 40.79678747 -119.65625 37.05859375 C-119.93421346 31.5225469 -119.96968914 25.98670691 -120.00634766 20.44433594 C-120.02291808 18.6072931 -120.05022259 16.77031503 -120.08837891 14.93359375 C-120.1431936 12.27960917 -120.16502536 9.62713088 -120.1796875 6.97265625 C-120.20235687 6.15479645 -120.22502625 5.33693665 -120.24838257 4.49429321 C-120.23244345 0.18380297 -120.06134959 -1.4334612 -117.27905273 -4.92211914 C-89.90796911 -25.99502547 -25.9518904 -20.18904415 0 0 Z " fill="#FDFDFD" transform="translate(1224.65625,1082.94140625)"/>
<path d="M0 0 C0.75216293 -0.00095673 1.50432587 -0.00191345 2.27928162 -0.00289917 C3.86335331 -0.00357531 5.44742787 -0.00176079 7.03149414 0.00244141 C9.40322428 0.00774459 11.77476043 0.00250448 14.14648438 -0.00390625 C45.01966086 -0.02202124 45.01966086 -0.02202124 52.51171875 6.578125 C54.8469961 9.2489307 55.0089247 11.93046467 55.09570312 15.32543945 C55.12948059 16.58738884 55.12948059 16.58738884 55.16394043 17.87483215 C55.23515383 21.71683379 55.29244 25.55865009 55.33105469 29.40112305 C55.35767991 31.42545202 55.39862523 33.44964484 55.45410156 35.47338867 C55.53329823 38.39817886 55.56636843 41.32038814 55.58984375 44.24609375 C55.62283569 45.14628738 55.65582764 46.04648102 55.68981934 46.97395325 C55.6782962 50.60621272 55.66587382 53.11351064 53.38256836 56.0418396 C49.41477439 59.5732366 46.35014325 61.22727887 40.87109375 61.1328125 C36.05199454 60.03434136 31.69102102 58.06194454 27.24609375 55.9453125 C22.6686551 53.87910756 18.82818753 53.15105736 13.91796875 54.78125 C10.64982778 56.05827578 10.64982778 56.05827578 7.87109375 58.1328125 C7.35917656 61.8868719 7.44347873 63.56265914 9.74609375 66.6328125 C14.78527437 71.04384041 20.92255042 74.06818314 26.76171875 77.26953125 C43.19243541 86.29750411 58.81289549 98.0568932 64.41992188 116.9855957 C69.86295093 138.35820134 65.95127546 161.53985974 54.9609375 180.38183594 C45.92001431 194.90726181 30.91202535 201.65170306 14.87011719 205.62890625 C-8.13774777 210.96470244 -33.43415268 210.06602121 -55.2734375 200.92578125 C-58.85963458 198.67398308 -60.14482348 196.89073892 -62.12890625 193.1328125 C-62.69729479 189.79395611 -62.69015032 186.51363636 -62.66015625 183.1328125 C-62.66398315 182.17890625 -62.66781006 181.225 -62.67175293 180.2421875 C-62.67446661 178.23176005 -62.66714362 176.22129697 -62.65039062 174.2109375 C-62.62897334 171.14242463 -62.65021091 168.07625298 -62.67578125 165.0078125 C-62.67313788 163.04947402 -62.6680127 161.091137 -62.66015625 159.1328125 C-62.66825317 158.22015625 -62.6763501 157.3075 -62.68469238 156.3671875 C-62.60329538 150.80826628 -61.89684372 147.50539632 -58.12890625 143.1328125 C-53.39884177 139.97943618 -48.66708397 140.46719721 -43.12890625 141.1328125 C-41.12226645 141.89762741 -39.14217099 142.73500291 -37.19140625 143.6328125 C-31.15928618 146.1992054 -25.78882659 146.65907973 -19.25390625 146.6953125 C-18.36195557 146.70949219 -17.47000488 146.72367188 -16.55102539 146.73828125 C-10.59868752 146.64891519 -7.0441327 145.50114888 -2.12890625 142.1328125 C-1.96361951 140.78297079 -1.84902629 139.42690549 -1.75390625 138.0703125 C-1.68429687 137.31621094 -1.6146875 136.56210938 -1.54296875 135.78515625 C-2.78143215 130.17904525 -7.37221093 126.4656573 -11.9765625 123.359375 C-13.37493819 122.48162889 -14.78016384 121.61471838 -16.19140625 120.7578125 C-17.70152003 119.81018417 -19.21062423 118.86094526 -20.71875 117.91015625 C-21.46237793 117.44464355 -22.20600586 116.97913086 -22.97216797 116.49951172 C-37.49773715 107.2948325 -52.93730842 96.58657652 -57.7097168 78.99145508 C-60.93407947 63.70564668 -61.49954452 46.22121198 -54.12890625 32.1328125 C-53.80712402 31.50697266 -53.4853418 30.88113281 -53.15380859 30.23632812 C-45.3645033 15.36418094 -35.63350651 6.9357421 -19.31640625 1.8203125 C-12.87620819 0.43125017 -6.57522439 -0.01903817 0 0 Z " fill="#FDFDFD" transform="translate(1314.12890625,1063.8671875)"/>
<path d="M0 0 C2.20913694 0.00531914 4.41806681 0.00004778 6.62719727 -0.00634766 C37.14679658 -0.02315829 37.14679658 -0.02315829 44.17700195 6.61865234 C47.50988107 10.76098504 47.29922532 14.99720138 47.27758789 20.13037109 C47.28711487 21.08427734 47.29664185 22.03818359 47.30645752 23.02099609 C47.31858657 25.03137624 47.31781866 27.04187067 47.30493164 29.05224609 C47.29324482 32.12198361 47.3455334 35.18623323 47.40258789 38.25537109 C47.40647283 40.21370057 47.40659883 42.17204187 47.40258789 44.13037109 C47.43325348 45.49935547 47.43325348 45.49935547 47.46453857 46.89599609 C47.39830011 50.54996636 47.3446146 53.10508387 45.04577637 56.04614258 C41.08124675 59.57558887 38.01843618 61.2247715 32.54321289 61.13037109 C27.72411368 60.03189995 23.36314016 58.05950313 18.91821289 55.94287109 C14.34077424 53.87666615 10.50030667 53.14861596 5.59008789 54.77880859 C2.32194692 56.05583438 2.32194692 56.05583438 -0.45678711 58.13037109 C-0.9687043 61.88443049 -0.88440213 63.56021774 1.41821289 66.63037109 C5.98615813 70.62104853 11.47030822 73.40391997 16.73071289 76.359375 C18.36922668 77.28070652 20.00570919 78.20565775 21.64038086 79.13378906 C23.28561615 80.06715898 24.93548876 80.992417 26.59057617 81.90820312 C35.15795522 86.77076961 41.65811818 92.60908391 47.35571289 100.63037109 C47.81913086 101.25556641 48.28254883 101.88076172 48.76000977 102.52490234 C59.51415999 117.38686103 59.70013451 137.2222947 56.92602539 154.82177734 C53.8548831 170.00209934 46.06762957 184.96486454 33.60961914 194.33740234 C10.95558967 209.28296157 -20.5854677 211.6969268 -46.72143555 206.61352539 C-54.2311098 204.91849 -63.45065919 202.61545419 -68.60205078 196.64331055 C-71.05571837 191.99597305 -71.03395565 188.30614415 -70.98803711 183.13037109 C-70.99186401 182.17646484 -70.99569092 181.22255859 -70.99963379 180.23974609 C-71.00234747 178.22931865 -70.99502448 176.21885557 -70.97827148 174.20849609 C-70.9568542 171.13998323 -70.97809177 168.07381157 -71.00366211 165.00537109 C-71.00101874 163.04703262 -70.99589356 161.08869559 -70.98803711 159.13037109 C-70.99613403 158.21771484 -71.00423096 157.30505859 -71.01257324 156.36474609 C-70.93117624 150.80582488 -70.22472458 147.50295492 -66.45678711 143.13037109 C-61.72672263 139.97699477 -56.99496483 140.4647558 -51.45678711 141.13037109 C-49.45014731 141.895186 -47.47005185 142.73256151 -45.51928711 143.63037109 C-39.45994796 146.21882665 -34.08536273 146.62584238 -27.51928711 146.63037109 C-26.16879272 146.63907227 -26.16879272 146.63907227 -24.79101562 146.64794922 C-19.64355175 146.55170796 -15.88494362 146.0303516 -11.45678711 143.13037109 C-9.82256934 139.86193555 -9.79263194 136.65071471 -10.45678711 133.13037109 C-13.85793771 127.53435498 -19.03675605 124.08460649 -24.51928711 120.75537109 C-26.03067457 119.80639463 -27.54108136 118.85585465 -29.05053711 117.90380859 C-29.79432617 117.43813477 -30.53811523 116.97246094 -31.30444336 116.49267578 C-45.93244336 107.23402787 -60.99899584 96.76418367 -66.01928711 79.22802734 C-66.16366211 78.53580078 -66.30803711 77.84357422 -66.45678711 77.13037109 C-66.63467773 76.30408203 -66.81256836 75.47779297 -66.99584961 74.62646484 C-68.8795807 60.33884346 -69.25035566 45.11574688 -62.45678711 32.13037109 C-62.13500488 31.50453125 -61.81322266 30.87869141 -61.48168945 30.23388672 C-53.54966342 15.08924234 -44.0082089 7.59782631 -27.76928711 1.81787109 C-18.59977786 -0.0852346 -9.3240809 -0.02660807 0 0 Z " fill="#FDFDFD" transform="translate(1656.456787109375,1063.86962890625)"/>
<path d="M0 0 C1.20140625 -0.020625 2.4028125 -0.04125 3.640625 -0.0625 C14.77207486 -0.11186341 14.77207486 -0.11186341 19.375 3.25 C21.5430117 6.50201755 21.6300596 7.43143869 21.6496582 11.19287109 C21.65919022 12.19756439 21.66872223 13.20225769 21.67854309 14.23739624 C21.67763168 15.32178986 21.67672028 16.40618347 21.67578125 17.5234375 C21.68006638 18.63933258 21.6843515 19.75522766 21.68876648 20.90493774 C21.69451307 23.2670219 21.69500764 25.62912376 21.69067383 27.99121094 C21.6875185 31.60382359 21.71095383 35.21561392 21.73632812 38.828125 C21.73860154 41.1223948 21.73930442 43.4166668 21.73828125 45.7109375 C21.747491 46.79128265 21.75670074 47.87162781 21.76618958 48.98471069 C21.70808983 58.41490541 21.70808983 58.41490541 18.375 62.25 C14.92644748 64.23199726 11.52967744 64.5447619 7.60083008 64.88085938 C-0.974672 65.49124147 -0.974672 65.49124147 -8.30078125 69.56640625 C-15.9710008 79.31821931 -15.90915615 90.17347914 -16.0300293 101.99707031 C-16.05153281 103.57183871 -16.08554513 105.14649007 -16.13256836 106.72070312 C-16.43600817 117.00958055 -16.07419789 125.62696472 -9.625 134.25 C-3.35434762 139.71641365 1.57834406 141.38968327 9.74609375 141.9453125 C13.13349864 142.3379092 15.54619084 143.36412723 18.375 145.25 C20.49426816 148.42890224 20.63194475 149.25439479 20.66552734 152.90161133 C20.67828705 153.84301468 20.69104675 154.78441803 20.70419312 155.75434875 C20.70641876 156.76998398 20.70864441 157.7856192 20.7109375 158.83203125 C20.7209227 160.40243416 20.7209227 160.40243416 20.73110962 162.00456238 C20.74124017 164.22120404 20.74592652 166.43787623 20.74560547 168.65454102 C20.74996981 172.03908911 20.78626196 175.42232408 20.82421875 178.80664062 C20.83008862 180.96093304 20.83405687 183.11523165 20.8359375 185.26953125 C20.85030853 186.27909378 20.86467957 187.28865631 20.87948608 188.32881165 C20.84224044 194.08436107 20.49520444 197.85009385 16.375 202.25 C12.36764235 204.64699276 8.20772985 204.55669441 3.65234375 204.55078125 C2.911017 204.55506638 2.16969025 204.5593515 1.40589905 204.56376648 C-0.16160058 204.56949452 -1.72912679 204.5700213 -3.29663086 204.56567383 C-5.65591879 204.56254192 -8.0139163 204.58589209 -10.37304688 204.61132812 C-22.08178637 204.66232976 -32.45158202 203.3090335 -43 197.875 C-44.68222656 197.02808594 -44.68222656 197.02808594 -46.3984375 196.1640625 C-64.04411363 185.69628852 -73.1993242 162.12670423 -78.19140625 143.09008789 C-80.16396382 134.20570958 -79.92638243 125.19826672 -79.88574219 116.1472168 C-79.87514162 113.34987089 -79.88561817 110.55318423 -79.8984375 107.75585938 C-79.91279869 91.7652429 -79.50842876 75.43485711 -74.9375 60 C-74.54667236 58.63633301 -74.54667236 58.63633301 -74.14794922 57.24511719 C-70.33405455 44.39046093 -65.6786169 33.34898298 -56.625 23.25 C-55.99851562 22.42757813 -55.37203125 21.60515625 -54.7265625 20.7578125 C-45.68472961 9.968116 -29.98473856 1.91765676 -16.04785156 0.41992188 C-10.70302362 0.045073 -5.35586096 0.02313547 0 0 Z " fill="#FDFDFD" transform="translate(1554.625,1066.75)"/>
<path d="M0 0 C1.32885475 -0.01210762 1.32885475 -0.01210762 2.68455505 -0.02445984 C4.54774054 -0.03822062 6.41095039 -0.04897814 8.27416992 -0.05688477 C10.17398498 -0.06845212 12.07376636 -0.08897812 13.97338867 -0.1184082 C16.73248144 -0.16108319 19.49061826 -0.17724721 22.25 -0.1875 C23.09389786 -0.20500809 23.93779572 -0.22251617 24.80726624 -0.24055481 C30.18557279 -0.22083242 33.35464161 0.56300121 37.55859375 4.23828125 C39.81391769 7.66744878 39.80775365 10.59611725 39.80583191 14.64306641 C39.8100264 15.96277939 39.81422089 17.28249237 39.81854248 18.64219666 C39.81305844 20.10391309 39.80737544 21.56562878 39.80151367 23.02734375 C39.80258692 24.5686908 39.80452624 26.11003746 39.80726624 27.65138245 C39.81212062 31.84508032 39.80444371 36.03867198 39.79431319 40.23235703 C39.78550423 44.64619569 39.78729094 49.06003129 39.78767395 53.47387695 C39.78673614 60.91212727 39.77805009 68.35033693 39.7644043 75.78857422 C39.74881616 84.31548603 39.74340141 92.8423529 39.74413985 101.36927795 C39.74482401 110.51136746 39.73781964 119.65344023 39.72869325 128.7955246 C39.72659024 131.39153612 39.7258559 133.98754483 39.72545433 136.58355713 C39.72214325 146.75363255 39.68098633 156.92245732 39.57833815 167.09203339 C39.55863111 169.23422049 39.54537126 171.37637415 39.5331459 173.51861572 C39.50749138 177.46365582 39.4374316 181.40716984 39.3605957 185.3515625 C39.35552348 186.50859177 39.35045126 187.66562103 39.34522533 188.85771179 C39.13978774 196.53239242 39.13978774 196.53239242 36.32684326 199.94885254 C33.44403013 201.29164408 31.62688035 201.74422624 28.46459961 201.75585938 C27.47685043 201.76846802 26.48910126 201.78107666 25.47142029 201.79406738 C23.88841881 201.781922 23.88841881 201.781922 22.2734375 201.76953125 C21.18019669 201.77335815 20.08695587 201.77718506 18.96058655 201.78112793 C16.6533211 201.78384593 14.34602478 201.77649267 12.03881836 201.75976562 C8.50499956 201.73833526 4.9732092 201.75958318 1.43945312 201.78515625 C-0.80338991 201.78251336 -3.04623168 201.77738919 -5.2890625 201.76953125 C-6.34642105 201.77762817 -7.4037796 201.7857251 -8.49317932 201.79406738 C-15.80331615 201.70045456 -15.80331615 201.70045456 -19.07592773 199.33007812 C-21.61519763 195.44013276 -21.59219699 192.39240813 -21.5953064 187.85624695 C-21.60187978 186.70128832 -21.60187978 186.70128832 -21.60858595 185.5229972 C-21.62199823 182.92898465 -21.62815823 180.33500609 -21.63427734 177.7409668 C-21.64217634 175.88673752 -21.65044516 174.03250979 -21.65905762 172.17828369 C-21.68529902 166.07720411 -21.70058637 159.97611758 -21.71484375 153.875 C-21.72020237 151.77693998 -21.72557987 149.67888001 -21.7309761 147.58082008 C-21.75260704 138.85570591 -21.77134509 130.13059361 -21.7825985 121.4054594 C-21.79884635 108.88913537 -21.83204206 96.37312136 -21.88899934 83.85691422 C-21.92765829 75.06281324 -21.94722633 66.26879533 -21.95251906 57.47461158 C-21.95617778 52.21887711 -21.96825446 46.96347314 -22.0006218 41.70783043 C-22.03063156 36.76410215 -22.03703963 31.82090557 -22.02523804 26.87710571 C-22.02501671 25.06183201 -22.03337022 23.24653414 -22.05089188 21.43134499 C-22.073505 18.95400806 -22.06532666 16.47861207 -22.04940796 14.00126648 C-22.07023109 12.92207531 -22.07023109 12.92207531 -22.09147489 11.82108229 C-22.0305409 7.9761815 -21.52977841 6.34929814 -19.1048069 3.30294514 C-13.76231206 -0.83854824 -6.5139816 0.05715625 0 0 Z " fill="#FDFDFD" transform="translate(1416.44140625,1067.76171875)"/>
<path d="M0 0 C8.71499222 6.29075143 13.28352137 14.28451695 15.8671875 24.75 C17.70656944 36.76229024 15.95991675 49.7717798 9.5625 60.25 C4.64331631 66.81717219 -2.50181921 72.8020435 -10.75 74.25 C-19.62758603 74.9913433 -28.01615508 75.29021945 -35.75 70.25 C-36.62398437 69.70666016 -36.62398437 69.70666016 -37.515625 69.15234375 C-41.80922187 66.07804502 -43.42976554 62.18504018 -44.75 57.25 C-45.11887607 54.27433171 -45.12589548 51.35457634 -45.078125 48.359375 C-45.07625183 47.53350891 -45.07437866 46.70764282 -45.07244873 45.85675049 C-45.06576578 44.11881439 -45.05192687 42.38089235 -45.03125 40.64306641 C-45.00024843 38.02101171 -44.99028201 35.39956331 -44.984375 32.77734375 C-44.87130324 7.06122377 -44.87130324 7.06122377 -40.5625 1.6875 C-29.560874 -9.15663851 -12.40317975 -7.75717262 0 0 Z " fill="#020200" transform="translate(944.75,1291.75)"/>
<path d="M0 0 C6.89054928 5.74916995 10.71914178 11.67915572 11.96069336 20.59936523 C12.79273759 32.5704167 12.01594694 42.56812287 4.01953125 52.1015625 C2.31434778 53.74599122 0.64794411 54.95826635 -1.375 56.1875 C-2.04660156 56.59742188 -2.71820312 57.00734375 -3.41015625 57.4296875 C-11.64885798 61.52784102 -23.37908066 62.18048592 -32.13671875 59.26953125 C-34.17000948 58.07279442 -35.71447817 56.85685439 -37.375 55.1875 C-38.303125 54.28 -39.23125 53.3725 -40.1875 52.4375 C-45.67654339 44.28234983 -45.87920501 35.87692784 -45.82104492 26.27612305 C-45.8125007 24.1251751 -45.8414299 21.97686117 -45.87304688 19.82617188 C-45.91258867 12.33270283 -45.74361248 6.46353484 -41.375 0.1875 C-39.41015625 -1.65234375 -39.41015625 -1.65234375 -37.4375 -2.75 C-36.78910156 -3.13027344 -36.14070312 -3.51054688 -35.47265625 -3.90234375 C-24.69666426 -8.57796039 -9.47523905 -6.74778706 0 0 Z " fill="#010100" transform="translate(944.375,1129.8125)"/>
<path d="M0 0 C1.29198051 -0.01429802 1.29198051 -0.01429802 2.61006165 -0.02888489 C3.53820175 -0.02797348 4.46634186 -0.02706207 5.42260742 -0.02612305 C6.38075851 -0.03040817 7.33890961 -0.0346933 8.32609558 -0.03910828 C10.35443329 -0.04485311 12.3827916 -0.04535072 14.41113281 -0.04101562 C17.50581344 -0.03786447 20.59953 -0.06128244 23.6940918 -0.08666992 C25.6660958 -0.08894386 27.63810237 -0.08964597 29.61010742 -0.08862305 C30.53217484 -0.09783279 31.45424225 -0.10704254 32.4042511 -0.11653137 C38.53374219 -0.07268625 42.97864563 0.62151862 47.56567383 5.06811523 C49.10169031 8.01557107 49.10393656 10.26205665 49.11401367 13.5793457 C49.11981445 15.41432617 49.11981445 15.41432617 49.12573242 17.28637695 C49.11413086 18.56125977 49.1025293 19.83614258 49.09057617 21.1496582 C49.10217773 22.41680664 49.1137793 23.68395508 49.12573242 24.98950195 C49.12186523 26.21540039 49.11799805 27.44129883 49.11401367 28.7043457 C49.11062988 29.8205127 49.10724609 30.93667969 49.10375977 32.08666992 C48.65816425 35.74615813 47.63548356 38.1402191 45.71557617 41.2746582 C38.51142451 46.07742597 27.88605119 44.56987537 19.50268555 44.62475586 C17.64448561 44.64135856 15.78635065 44.66870505 13.9284668 44.70678711 C11.23217074 44.76164805 8.53735557 44.7834352 5.84057617 44.7980957 C4.60283447 44.83209976 4.60283447 44.83209976 3.34008789 44.86679077 C-0.752331 44.85185686 -3.45713131 44.57307462 -6.72973633 41.99194336 C-12.50659492 35.84740627 -11.6508796 30.03376224 -11.65942383 21.8996582 C-11.68391602 20.68020508 -11.7084082 19.46075195 -11.73364258 18.2043457 C-11.77037949 6.98734087 -11.77037949 6.98734087 -7.28442383 2.2746582 C-4.18882869 0.21092811 -3.50738189 0.02135019 0 0 Z " fill="#FBFBFB" transform="translate(1406.284423828125,1010.725341796875)"/>
<path d="M0 0 C6.92991373 5.73338187 10.03446793 13.50443355 10.93017578 22.30908203 C11.06457262 25.41111986 11.0876979 28.49294716 11.06640625 31.59765625 C11.09637695 33.17160156 11.09637695 33.17160156 11.12695312 34.77734375 C11.12306467 40.92109902 10.80609082 44.71152589 6.62890625 49.34765625 C2.04924748 51.63748563 -4.68704815 50.65922275 -9.77368164 50.69775391 C-11.37506658 50.7143015 -12.97637802 50.74157634 -14.57739258 50.77978516 C-16.89052491 50.83468356 -19.20192811 50.85644543 -21.515625 50.87109375 C-22.22725296 50.89376312 -22.93888092 50.9164325 -23.67207336 50.93978882 C-27.57159713 50.9232964 -29.21845874 50.46989151 -32.29956055 48.00244141 C-36.61332107 42.47411707 -35.88858936 36.06111281 -35.37109375 29.34765625 C-34.33107931 24.24025858 -32.91682327 19.32771572 -31.37109375 14.34765625 C-31.10941406 13.43242188 -30.84773437 12.5171875 -30.578125 11.57421875 C-28.82265619 5.73558769 -26.82286301 1.77785498 -21.37109375 -1.40234375 C-14.11310106 -4.42650737 -6.76438248 -4.37879979 0 0 Z " fill="#040301" transform="translate(944.37109375,775.65234375)"/>
<path d="M0 0 C4.60137815 4.10122835 6.54290662 8.40346171 7.1875 14.53515625 C7.36965789 23.54058707 6.53012946 30.39099542 0.3125 37.21484375 C-2.76186903 40.09706472 -5.77980026 39.90316565 -9.80859375 39.83203125 C-14.13928607 39.3281227 -16.65419394 37.34487868 -19.37890625 34.04296875 C-23.42089274 27.57860709 -22.9110101 19.89324722 -22.125 12.5625 C-20.49993525 6.55523816 -17.13072661 3.07715911 -12.125 -0.4375 C-7.50549719 -1.97733427 -4.47207137 -2.05715283 0 0 Z " fill="#040404" transform="translate(1174.125,1185.4375)"/>
</svg>
